Coordinates
version=1
nRows=17
nColumns=24
inDegrees=yes

Units are S.I. units (second, meters, Newtons, ...)
Angles are in degrees.

endheader
time	pelvis_tilt	pelvis_list	pelvis_rotation	pelvis_tx	pelvis_ty	pelvis_tz	hip_flexion_r	hip_adduction_r	hip_rotation_r	knee_angle_r	ankle_angle_r	subtalar_angle_r	mtp_angle_r	hip_flexion_l	hip_adduction_l	hip_rotation_l	knee_angle_l	ankle_angle_l	subtalar_angle_l	mtp_angle_l	lumbar_extension	lumbar_bending	lumbar_rotation
      0.91616667	      6.86499072	     -1.68981623	     -0.55092909	     -0.17228596	      0.99579672	      0.31039842	    -20.39846980	      6.20142684	     -1.18707219	     -9.84319603	     12.41024419	    -10.77328799	    -11.19361976	     17.00790629	      0.03213437	     -2.23597703	     -9.68732429	     -0.51592084	     -3.52913782	     -0.67811535	     -9.03726827	      5.34342200	      7.95342275
      0.92033333	      6.88970414	     -1.60635904	     -0.59771004	     -0.16619731	      0.99539554	      0.31011033	    -20.36757254	      6.03896866	     -1.28308723	    -10.66786618	     12.47444127	    -10.44169678	    -10.77165737	     16.77778715	      0.21973343	     -2.06412598	     -9.59701446	     -0.90370750	     -3.76612281	      0.94678016	     -9.00603802	      5.25366285	      7.91709740
      0.92450000	      6.79270564	     -1.57860555	     -0.62560454	     -0.16012628	      0.99487969	      0.30985623	    -20.19355017	      5.97062231	     -1.17859036	    -11.51586678	     12.47305598	    -10.67041119	    -10.72106417	     16.74380190	      0.33895101	     -1.89206654	     -9.70418107	     -1.15608857	     -3.82473568	      1.06455070	     -8.82424408	      5.22312048	      7.96849737
      0.92866667	      6.77224196	     -1.50305882	     -0.64736308	     -0.15401973	      0.99451241	      0.30960113	    -20.07666704	      5.84695558	     -1.14009546	    -12.40271557	     12.40074281	    -10.77897198	    -10.67622756	     16.62584386	      0.50668521	     -1.75076293	     -9.86982640	     -1.48446127	     -3.91371797	      1.14883606	     -8.74744935	      5.12229131	      7.96552537
      0.93283333	      6.71682986	     -1.44190344	     -0.67983805	     -0.14789859	      0.99416365	      0.30930577	    -19.86363707	      5.72293234	     -1.12931525	    -13.40080026	     12.34908238	    -10.74429569	    -10.55234048	     16.50289389	      0.67417775	     -1.45636509	    -10.00291429	     -1.85930472	     -4.25288783	      1.33764139	     -8.60582108	      5.06441402	      7.96490580
      0.93700000	      6.66691303	     -1.36128363	     -0.69313577	     -0.14176363	      0.99384979	      0.30899638	    -19.62643993	      5.58276253	     -1.15441934	    -14.44439297	     12.21369501	    -10.69542572	    -10.37331897	     16.40824226	      0.85842639	     -1.20621827	    -10.24863163	     -2.23642171	     -4.54439437	      1.56942976	     -8.49293926	      4.98003336	      7.93747222
      0.94116667	      6.63547439	     -1.27840602	     -0.70853045	     -0.13559952	      0.99361176	      0.30869201	    -19.37104392	      5.43455284	     -1.19575953	    -15.55367899	     12.02509662	    -10.66468441	    -10.16122201	     16.28555160	      1.04089883	     -0.96090695	    -10.51892797	     -2.61370429	     -4.83973928	      1.80051682	     -8.37351571	      4.87577664	      7.90607110
      0.94533333	      6.61031139	     -1.17867005	     -0.71773691	     -0.12943032	      0.99342144	      0.30836614	    -19.08424273	      5.26471650	     -1.25717383	    -16.72302633	     11.76795864	    -10.60401997	     -9.90888754	     16.16192964	      1.24185694	     -0.70773820	    -10.83326173	     -2.98985248	     -5.16584311	      2.03288336	     -8.27212267	      4.76179370	      7.86666076
      0.94950000	      6.60646471	     -1.06977263	     -0.71394870	     -0.12325367	      0.99326530	      0.30800774	    -18.77415756	      5.06805349	     -1.41986940	    -17.95492608	     11.37828321	    -10.41595342	     -5.33379356	     16.05166572	      1.44432272	     -0.53926205	    -11.24114937	     -3.35886561	     -5.46722571	      5.47178138	     -8.20898506	      4.63670529	      7.83215980
      0.95366667	      6.55895185	     -0.97786713	     -0.71576218	     -0.11708160	      0.99314092	      0.30768157	    -18.39022341	      4.91062232	     -1.44374760	    -19.23254255	     10.95559205	    -10.51503843	     -5.25430157	     15.95583779	      1.63396231	     -0.26200856	    -11.60900376	     -3.72465411	     -5.85691421	      5.44051714	     -8.07195612	      4.52498473	      7.76103622
      0.95783333	      6.53268015	     -0.86819756	     -0.70088748	     -0.11093118	      0.99305332	      0.30729415	    -17.97389382	      4.71711133	     -1.56748463	    -20.59594703	     10.50800251	    -10.37957684	     -5.07082166	     15.86300701	      1.84695553	     -0.00023765	    -12.04568990	     -4.05446194	     -6.31848896	      5.41443084	     -7.97856966	      4.40151873	      7.68331869
      0.96200000	      6.48903310	     -0.75102538	     -0.69279332	     -0.10476429	      0.99298553	      0.30691103	    -17.49345915	      4.50493537	     -1.70522733	    -22.02589970	      9.94973192	    -10.25027856	     -4.84718626	     15.77685401	      2.05966903	      0.24264414	    -12.47257373	     -4.34024954	     -6.69218820	      5.39886892	     -7.85041087	      4.26719975	      7.60988014
      0.96616667	      6.44687965	     -0.63262386	     -0.66935538	     -0.09864233	      0.99292268	      0.30648861	    -16.96626920	      4.28410128	     -1.87447621	    -23.52421176	      9.34251739	    -10.04917885	     -4.49269687	     15.71727409	      2.27706454	      0.47958945	    -12.96484141	     -4.58862855	     -7.14187766	      5.38343607	     -7.73778035	      4.13503687	      7.51127832
      0.97033333	      6.48097564	     -0.46412928	     -0.65906975	     -0.09248320	      0.99301286	      0.30606573	    -16.49191528	      3.98279787	     -2.09965369	    -25.04129794	      8.50470151	     -9.94023836	      1.99612204	     15.54021392	      2.54056932	      0.67873906	    -13.40324002	     -4.77391273	     -7.50249705	      5.17381274	     -7.70409612	      3.93696447	      7.43784942
      0.97450000	      6.42864191	     -0.33352536	     -0.63560498	     -0.08638408	      0.99301652	      0.30563667	    -15.87630722	      3.73544877	     -2.26572118	    -26.63274578	      7.67149937	     -9.80501750	      2.05781314	     15.49030370	      2.76133904	      0.87560967	    -13.90891140	     -4.92755367	     -7.87175163	      5.17034794	     -7.57660755	      3.79214339	      7.33359001
      0.97866667	      6.40704675	     -0.18105150	     -0.61262238	     -0.08031255	      0.99306710	      0.30519047	    -15.25073021	      3.44653909	     -2.46843579	    -28.28229733	      6.77587373	     -9.58987201	      2.20060890	     15.39852758	      3.00570277	      1.07070042	    -14.40364522	     -5.01770548	     -8.25394855	      5.15860698	     -7.48830283	      3.61827932	      7.22376998
      0.98283333	      6.38291135	      0.00108858	     -0.60469482	     -0.07424314	      0.99315595	      0.30474656	    -14.58188898	      3.10782910	     -2.67296322	    -29.98457363	      5.82404525	     -9.33909522	      2.49010768	     15.28972420	      3.27947612	      1.26082543	    -14.87002249	     -5.03566135	     -8.65674368	      5.12780390	     -7.39253574	      3.41095496	      7.09637154
